<svg width="1600" height="900" viewBox="0 0 1600 900" fill="none" xmlns="http://www.w3.org/2000/svg">
  <defs>
    <linearGradient id="bg" x1="800" y1="0" x2="800" y2="900" gradientUnits="userSpaceOnUse">
      <stop stop-color="#0A0A0A"/>
      <stop offset="1" stop-color="#121212"/>
    </linearGradient>
    <linearGradient id="glow" x1="800" y1="500" x2="800" y2="900" gradientUnits="userSpaceOnUse">
      <stop stop-color="#C8A97A" stop-opacity="0.2"/>
      <stop offset="1" stop-color="#C8A97A" stop-opacity="0"/>
    </linearGradient>
  </defs>

  <rect width="1600" height="900" fill="url(#bg)"/>
  <rect width="1600" height="900" fill="url(#glow)"/>

  <g opacity="0.7" stroke="#E8E0D4" stroke-width="2">
    <path d="M120 770H1480"/>
    <path d="M160 720H1440"/>
    <path d="M210 670H1390"/>
    <path d="M280 620H1320"/>
  </g>

  <g fill="#111111" stroke="#A89A80" stroke-width="2">
    <rect x="220" y="360" width="180" height="260"/>
    <rect x="410" y="300" width="200" height="320"/>
    <rect x="640" y="250" width="160" height="370"/>
    <rect x="820" y="280" width="220" height="340"/>
    <rect x="1070" y="330" width="160" height="290"/>
    <rect x="1240" y="390" width="130" height="230"/>
  </g>

  <g fill="#C8A97A" opacity="0.85">
    <rect x="258" y="420" width="18" height="12"/>
    <rect x="448" y="360" width="18" height="12"/>
    <rect x="486" y="360" width="18" height="12"/>
    <rect x="678" y="320" width="18" height="12"/>
    <rect x="858" y="340" width="18" height="12"/>
    <rect x="896" y="340" width="18" height="12"/>
    <rect x="1110" y="390" width="18" height="12"/>
    <rect x="1274" y="438" width="18" height="12"/>
  </g>

  <text x="800" y="152" text-anchor="middle" fill="#E8E0D4" font-size="46" font-family="monospace" letter-spacing="6">PIXEL.LOG</text>
</svg>
